<svg xmlns="http://www.w3.org/2000/svg" viewBox="0 -75 120 76">
    <path fill="#a20118" d="M 81.640625 -57.875 C 77.804688 -57.363281 74.910156 -56.171875 72.953125 -54.296875 C 70.992188 -52.421875 69.648438 -50.097656 68.921875 -47.328125 C 68.203125 -44.566406 67.84375 -41.648438 67.84375 -38.578125 C 67.84375 -35.515625 67.882812 -32.492188 67.96875 -29.515625 C 67.96875 -28.921875 68.03125 -27.578125 68.15625 -25.484375 C 68.289062 -23.398438 68.398438 -21.015625 68.484375 -18.328125 C 68.566406 -15.648438 68.546875 -13.007812 68.421875 -10.40625 C 68.296875 -7.8125 68 -5.640625 67.53125 -3.890625 C 67.0625 -2.148438 66.359375 -1.191406 65.421875 -1.015625 C 63.878906 -0.847656 62.148438 -0.613281 60.234375 -0.3125 C 58.316406 -0.0195312 56.460938 0.0585938 54.671875 -0.0625 C 52.890625 -0.1875 51.398438 -0.71875 50.203125 -1.65625 C 49.015625 -2.59375 48.421875 -4.171875 48.421875 -6.390625 C 48.335938 -12.691406 48.296875 -19.015625 48.296875 -25.359375 C 48.296875 -31.703125 48.039062 -37.984375 47.53125 -44.203125 C 47.269531 -47.691406 46.304688 -50.78125 44.640625 -53.46875 C 42.984375 -56.15625 40.15625 -57.664062 36.15625 -58 C 36.90625 -58.09375 35.566406 -58.140625 35.140625 -58.140625 C 31.554688 -58.140625 28.675781 -57.285156 26.5 -55.578125 C 24.332031 -53.867188 22.71875 -51.648438 21.65625 -48.921875 C 20.59375 -46.203125 19.890625 -43.332031 19.546875 -40.3125 C 19.203125 -37.289062 19.078125 -34.414062 19.171875 -31.6875 C 19.253906 -27.9375 19.316406 -24.164062 19.359375 -20.375 C 19.398438 -16.582031 19.421875 -12.816406 19.421875 -9.078125 C 19.503906 -6.085938 19.203125 -4.019531 18.515625 -2.875 C 17.835938 -1.726562 16.691406 -1.046875 15.078125 -0.828125 C 13.460938 -0.617188 11.25 -0.382812 8.4375 -0.125 C 5.195312 0.121094 3.019531 -0.597656 1.90625 -2.296875 C 0.800781 -4.003906 0.25 -6.347656 0.25 -9.328125 C 0.25 -15.367188 0.25 -21.457031 0.25 -27.59375 C 0.25 -33.726562 0.25 -39.863281 0.25 -46 C 0.25 -49.0625 0.25 -52.101562 0.25 -55.125 C 0.25 -58.15625 0.25 -61.203125 0.25 -64.265625 C 0.25 -65.460938 0.1875 -66.910156 0.0625 -68.609375 C -0.0585938 -70.316406 0.300781 -71.59375 1.15625 -72.4375 C 1.488281 -72.863281 2.296875 -73.078125 3.578125 -73.078125 C 3.828125 -73.078125 4.125 -73.078125 4.46875 -73.078125 C 4.8125 -73.078125 5.15625 -73.035156 5.5 -72.953125 C 6.6875 -72.785156 7.832031 -72.59375 8.9375 -72.375 C 10.050781 -72.164062 11.160156 -71.972656 12.265625 -71.796875 C 14.054688 -71.460938 15.863281 -71.144531 17.6875 -70.84375 C 19.519531 -70.550781 21.375 -70.273438 23.25 -70.015625 C 23.425781 -70.015625 23.578125 -70.015625 23.703125 -70.015625 C 23.828125 -70.015625 23.929688 -70.015625 24.015625 -70.015625 C 24.867188 -70.015625 25.632812 -70.140625 26.3125 -70.390625 C 27 -70.648438 27.640625 -70.863281 28.234375 -71.03125 C 28.398438 -71.207031 28.585938 -71.316406 28.796875 -71.359375 C 29.015625 -71.398438 29.171875 -71.460938 29.265625 -71.546875 C 31.640625 -72.316406 33.804688 -72.910156 35.765625 -73.328125 C 37.734375 -73.753906 39.566406 -73.96875 41.265625 -73.96875 C 46.460938 -73.96875 50.894531 -71.96875 54.5625 -67.96875 C 56.945312 -65.582031 59.414062 -64.390625 61.96875 -64.390625 C 63.5 -64.390625 64.878906 -64.726562 66.109375 -65.40625 C 67.347656 -66.09375 68.476562 -66.820312 69.5 -67.59375 C 69.757812 -67.757812 69.992188 -67.925781 70.203125 -68.09375 C 70.421875 -68.269531 70.613281 -68.398438 70.78125 -68.484375 C 76.320312 -72.234375 82.195312 -74.109375 88.40625 -74.109375 C 92.664062 -74.109375 96.710938 -73.210938 100.546875 -71.421875 C 104.378906 -69.628906 107.703125 -66.988281 110.515625 -63.5 C 112.390625 -61.195312 113.726562 -58.578125 114.53125 -55.640625 C 115.34375 -52.703125 115.851562 -49.59375 116.0625 -46.3125 C 116.28125 -43.03125 116.367188 -39.769531 116.328125 -36.53125 C 116.285156 -33.300781 116.394531 -30.28125 116.65625 -27.46875 C 116.988281 -23.71875 117.328125 -19.84375 117.671875 -15.84375 C 118.015625 -11.84375 117.460938 -8.007812 116.015625 -4.34375 C 115.410156 -2.894531 114.515625 -1.957031 113.328125 -1.53125 C 112.140625 -1.101562 110.820312 -0.953125 109.375 -1.078125 C 107.925781 -1.210938 106.429688 -1.238281 104.890625 -1.15625 C 102.765625 -1.15625 101.210938 -1.257812 100.234375 -1.46875 C 99.253906 -1.675781 98.613281 -2.269531 98.3125 -3.25 C 98.019531 -4.238281 97.785156 -5.835938 97.609375 -8.046875 C 97.273438 -14.347656 97.148438 -20.691406 97.234375 -27.078125 C 97.316406 -33.472656 97.015625 -39.738281 96.328125 -45.875 C 95.910156 -49.707031 94.613281 -52.707031 92.4375 -54.875 C 90.269531 -57.050781 87.476562 -58.140625 84.0625 -58.140625 C 83.726562 -58.140625 83.347656 -58.113281 82.921875 -58.0625 C 82.492188 -58.019531 82.066406 -57.957031 81.640625 -57.875 Z" />
</svg>
