<svg xmlns="http://www.w3.org/2000/svg" xmlns:xlink="http://www.w3.org/1999/xlink" viewBox="265 210 475 140" preserveAspectRatio="xMidYMid meet" version="1.0"><defs><g/><clipPath id="60cf385519"><rect x="0" width="473" y="0" height="131"/></clipPath><clipPath id="3af00c8533"><path d="M 715.828125 331.589844 L 732.308594 331.589844 L 732.308594 348.070312 L 715.828125 348.070312 Z M 715.828125 331.589844 " clip-rule="nonzero"/></clipPath><clipPath id="b3eaa12096"><path d="M 724.066406 331.589844 C 719.515625 331.589844 715.828125 335.277344 715.828125 339.828125 C 715.828125 344.378906 719.515625 348.070312 724.066406 348.070312 C 728.617188 348.070312 732.308594 344.378906 732.308594 339.828125 C 732.308594 335.277344 728.617188 331.589844 724.066406 331.589844 Z M 724.066406 331.589844 " clip-rule="nonzero"/></clipPath><clipPath id="ae72960fb7"><path d="M 0.828125 0.589844 L 17.308594 0.589844 L 17.308594 17.070312 L 0.828125 17.070312 Z M 0.828125 0.589844 " clip-rule="nonzero"/></clipPath><clipPath id="639f8213e8"><path d="M 9.066406 0.589844 C 4.515625 0.589844 0.828125 4.277344 0.828125 8.828125 C 0.828125 13.378906 4.515625 17.070312 9.066406 17.070312 C 13.617188 17.070312 17.308594 13.378906 17.308594 8.828125 C 17.308594 4.277344 13.617188 0.589844 9.066406 0.589844 Z M 9.066406 0.589844 " clip-rule="nonzero"/></clipPath><clipPath id="03dbbe185f"><rect x="0" width="18" y="0" height="18"/></clipPath><clipPath id="799452b0a6"><rect x="0" width="255" y="0" height="32"/></clipPath></defs><g transform="matrix(1, 0, 0, 1, 270, 215)"><g clip-path="url(#60cf385519)"><g fill="#a20118" fill-opacity="1"><g transform="translate(2.333655, 102.304131)"><g><path d="M 81.640625 -57.875 C 77.804688 -57.363281 74.910156 -56.171875 72.953125 -54.296875 C 70.992188 -52.421875 69.648438 -50.097656 68.921875 -47.328125 C 68.203125 -44.566406 67.84375 -41.648438 67.84375 -38.578125 C 67.84375 -35.515625 67.882812 -32.492188 67.96875 -29.515625 C 67.96875 -28.921875 68.03125 -27.578125 68.15625 -25.484375 C 68.289062 -23.398438 68.398438 -21.015625 68.484375 -18.328125 C 68.566406 -15.648438 68.546875 -13.007812 68.421875 -10.40625 C 68.296875 -7.8125 68 -5.640625 67.53125 -3.890625 C 67.0625 -2.148438 66.359375 -1.191406 65.421875 -1.015625 C 63.878906 -0.847656 62.148438 -0.613281 60.234375 -0.3125 C 58.316406 -0.0195312 56.460938 0.0585938 54.671875 -0.0625 C 52.890625 -0.1875 51.398438 -0.71875 50.203125 -1.65625 C 49.015625 -2.59375 48.421875 -4.171875 48.421875 -6.390625 C 48.335938 -12.691406 48.296875 -19.015625 48.296875 -25.359375 C 48.296875 -31.703125 48.039062 -37.984375 47.53125 -44.203125 C 47.269531 -47.691406 46.304688 -50.78125 44.640625 -53.46875 C 42.984375 -56.15625 40.15625 -57.664062 36.15625 -58 C 35.90625 -58.09375 35.566406 -58.140625 35.140625 -58.140625 C 31.554688 -58.140625 28.675781 -57.285156 26.5 -55.578125 C 24.332031 -53.867188 22.71875 -51.648438 21.65625 -48.921875 C 20.59375 -46.203125 19.890625 -43.332031 19.546875 -40.3125 C 19.203125 -37.289062 19.078125 -34.414062 19.171875 -31.6875 C 19.253906 -27.9375 19.316406 -24.164062 19.359375 -20.375 C 19.398438 -16.582031 19.421875 -12.816406 19.421875 -9.078125 C 19.503906 -6.085938 19.203125 -4.019531 18.515625 -2.875 C 17.835938 -1.726562 16.691406 -1.046875 15.078125 -0.828125 C 13.460938 -0.617188 11.25 -0.382812 8.4375 -0.125 C 5.195312 0.121094 3.019531 -0.597656 1.90625 -2.296875 C 0.800781 -4.003906 0.25 -6.347656 0.25 -9.328125 C 0.25 -15.367188 0.25 -21.457031 0.25 -27.59375 C 0.25 -33.726562 0.25 -39.863281 0.25 -46 C 0.25 -49.0625 0.25 -52.101562 0.25 -55.125 C 0.25 -58.15625 0.25 -61.203125 0.25 -64.265625 C 0.25 -65.460938 0.1875 -66.910156 0.0625 -68.609375 C -0.0585938 -70.316406 0.300781 -71.59375 1.15625 -72.4375 C 1.488281 -72.863281 2.296875 -73.078125 3.578125 -73.078125 C 3.828125 -73.078125 4.125 -73.078125 4.46875 -73.078125 C 4.8125 -73.078125 5.15625 -73.035156 5.5 -72.953125 C 6.6875 -72.785156 7.832031 -72.59375 8.9375 -72.375 C 10.050781 -72.164062 11.160156 -71.972656 12.265625 -71.796875 C 14.054688 -71.460938 15.863281 -71.144531 17.6875 -70.84375 C 19.519531 -70.550781 21.375 -70.273438 23.25 -70.015625 C 23.425781 -70.015625 23.578125 -70.015625 23.703125 -70.015625 C 23.828125 -70.015625 23.929688 -70.015625 24.015625 -70.015625 C 24.867188 -70.015625 25.632812 -70.140625 26.3125 -70.390625 C 27 -70.648438 27.640625 -70.863281 28.234375 -71.03125 C 28.398438 -71.207031 28.585938 -71.316406 28.796875 -71.359375 C 29.015625 -71.398438 29.171875 -71.460938 29.265625 -71.546875 C 31.640625 -72.316406 33.804688 -72.910156 35.765625 -73.328125 C 37.734375 -73.753906 39.566406 -73.96875 41.265625 -73.96875 C 46.460938 -73.96875 50.894531 -71.96875 54.5625 -67.96875 C 56.945312 -65.582031 59.414062 -64.390625 61.96875 -64.390625 C 63.5 -64.390625 64.878906 -64.726562 66.109375 -65.40625 C 67.347656 -66.09375 68.476562 -66.820312 69.5 -67.59375 C 69.757812 -67.757812 69.992188 -67.925781 70.203125 -68.09375 C 70.421875 -68.269531 70.613281 -68.398438 70.78125 -68.484375 C 76.320312 -72.234375 82.195312 -74.109375 88.40625 -74.109375 C 92.664062 -74.109375 96.710938 -73.210938 100.546875 -71.421875 C 104.378906 -69.628906 107.703125 -66.988281 110.515625 -63.5 C 112.390625 -61.195312 113.726562 -58.578125 114.53125 -55.640625 C 115.34375 -52.703125 115.851562 -49.59375 116.0625 -46.3125 C 116.28125 -43.03125 116.367188 -39.769531 116.328125 -36.53125 C 116.285156 -33.300781 116.394531 -30.28125 116.65625 -27.46875 C 116.988281 -23.71875 117.328125 -19.84375 117.671875 -15.84375 C 118.015625 -11.84375 117.460938 -8.007812 116.015625 -4.34375 C 115.410156 -2.894531 114.515625 -1.957031 113.328125 -1.53125 C 112.140625 -1.101562 110.820312 -0.953125 109.375 -1.078125 C 107.925781 -1.210938 106.429688 -1.238281 104.890625 -1.15625 C 102.765625 -1.15625 101.210938 -1.257812 100.234375 -1.46875 C 99.253906 -1.675781 98.613281 -2.269531 98.3125 -3.25 C 98.019531 -4.238281 97.785156 -5.835938 97.609375 -8.046875 C 97.273438 -14.347656 97.148438 -20.691406 97.234375 -27.078125 C 97.316406 -33.472656 97.015625 -39.738281 96.328125 -45.875 C 95.910156 -49.707031 94.613281 -52.707031 92.4375 -54.875 C 90.269531 -57.050781 87.476562 -58.140625 84.0625 -58.140625 C 83.726562 -58.140625 83.347656 -58.113281 82.921875 -58.0625 C 82.492188 -58.019531 82.066406 -57.957031 81.640625 -57.875 Z M 81.640625 -57.875 "/></g></g></g><g fill="#a20118" fill-opacity="1"><g transform="translate(120.370499, 102.304131)"><g><path d="M 62.484375 -3.1875 C 61.796875 -2.34375 60.726562 -1.875 59.28125 -1.78125 C 57.914062 -1.78125 56.59375 -2.054688 55.3125 -2.609375 C 54.039062 -3.171875 52.785156 -3.726562 51.546875 -4.28125 C 50.316406 -4.832031 48.976562 -5.109375 47.53125 -5.109375 C 46.59375 -5.109375 45.65625 -5.046875 44.71875 -4.921875 C 43.78125 -4.796875 42.925781 -4.644531 42.15625 -4.46875 L 41.53125 -4.34375 C 39.050781 -3.914062 36.640625 -3.359375 34.296875 -2.671875 C 31.960938 -1.992188 29.769531 -1.316406 27.71875 -0.640625 C 26.78125 -0.378906 25.820312 -0.164062 24.84375 0 C 23.863281 0.164062 22.863281 0.25 21.84375 0.25 C 15.625 0.25 10.382812 -2.21875 6.125 -7.15625 C 1.269531 -12.6875 -0.636719 -19.5 0.390625 -27.59375 C 0.804688 -30.832031 1.929688 -33.726562 3.765625 -36.28125 C 5.597656 -38.84375 7.921875 -40.800781 10.734375 -42.15625 C 12.179688 -42.84375 13.710938 -43.332031 15.328125 -43.625 C 16.953125 -43.925781 18.613281 -44.207031 20.3125 -44.46875 C 20.738281 -44.46875 21.117188 -44.488281 21.453125 -44.53125 C 21.796875 -44.570312 22.140625 -44.632812 22.484375 -44.71875 L 39.21875 -47.015625 C 41.4375 -47.359375 42.820312 -48.019531 43.375 -49 C 43.925781 -49.976562 44.242188 -50.765625 44.328125 -51.359375 C 44.503906 -52.804688 44.054688 -54.125 42.984375 -55.3125 C 41.921875 -56.507812 40.664062 -57.320312 39.21875 -57.75 C 36.582031 -58.769531 33.859375 -59.28125 31.046875 -59.28125 L 30.65625 -59.28125 C 28.019531 -59.195312 25.507812 -58.8125 23.125 -58.125 C 20.738281 -57.445312 18.4375 -56.640625 16.21875 -55.703125 C 15.539062 -55.359375 14.734375 -55.1875 13.796875 -55.1875 C 11.921875 -55.1875 10.066406 -55.804688 8.234375 -57.046875 C 6.410156 -58.285156 5.113281 -59.753906 4.34375 -61.453125 C 4 -62.140625 3.847656 -62.71875 3.890625 -63.1875 C 3.929688 -63.65625 4 -64.015625 4.09375 -64.265625 C 4.601562 -65.367188 5.601562 -66.367188 7.09375 -67.265625 C 8.582031 -68.160156 10.15625 -68.925781 11.8125 -69.5625 C 13.476562 -70.207031 14.863281 -70.695312 15.96875 -71.03125 C 22.101562 -72.988281 28.28125 -73.96875 34.5 -73.96875 C 35.09375 -73.96875 35.6875 -73.96875 36.28125 -73.96875 C 36.882812 -73.96875 37.484375 -73.925781 38.078125 -73.84375 C 41.054688 -73.675781 44.351562 -73.101562 47.96875 -72.125 C 51.59375 -71.144531 54.679688 -69.289062 57.234375 -66.5625 C 60.210938 -63.320312 62.003906 -60.085938 62.609375 -56.859375 C 63.285156 -53.191406 63.515625 -49.378906 63.296875 -45.421875 C 63.085938 -41.460938 63.023438 -37.609375 63.109375 -33.859375 C 63.109375 -30.023438 63.109375 -26.171875 63.109375 -22.296875 C 63.109375 -18.421875 63.15625 -14.609375 63.25 -10.859375 C 63.25 -9.578125 63.3125 -8.210938 63.4375 -6.765625 C 63.5625 -5.316406 63.242188 -4.125 62.484375 -3.1875 Z M 43.953125 -25.171875 C 44.628906 -26.535156 44.835938 -27.6875 44.578125 -28.625 C 44.328125 -29.5625 44.078125 -30.195312 43.828125 -30.53125 C 43.484375 -31.039062 42.945312 -31.53125 42.21875 -32 C 41.5 -32.46875 40.5 -32.742188 39.21875 -32.828125 L 38.203125 -32.96875 C 37.429688 -33.050781 36.640625 -33.09375 35.828125 -33.09375 C 35.023438 -33.09375 34.15625 -33.09375 33.21875 -33.09375 C 31.769531 -33.09375 30.023438 -32.941406 27.984375 -32.640625 C 25.941406 -32.347656 23.984375 -31.5625 22.109375 -30.28125 C 20.828125 -29.257812 20.015625 -28.195312 19.671875 -27.09375 C 19.335938 -26.15625 19.296875 -24.960938 19.546875 -23.515625 C 20.140625 -20.867188 21.285156 -18.820312 22.984375 -17.375 C 24.691406 -15.925781 26.738281 -15.203125 29.125 -15.203125 C 32.113281 -15.203125 35.054688 -16.179688 37.953125 -18.140625 C 40.847656 -20.097656 42.847656 -22.441406 43.953125 -25.171875 Z M 43.953125 -25.171875 "/></g></g></g><g fill="#a20118" fill-opacity="1"><g transform="translate(184.11444, 102.304131)"><g><path d="M 65.28125 -0.640625 C 63.070312 -0.722656 60.835938 -0.742188 58.578125 -0.703125 C 56.316406 -0.660156 54.039062 -0.640625 51.75 -0.640625 C 51.238281 -0.640625 50.832031 -1.53125 50.53125 -3.3125 C 50.226562 -5.101562 50.035156 -7.445312 49.953125 -10.34375 C 49.867188 -13.238281 49.828125 -16.367188 49.828125 -19.734375 C 49.828125 -23.097656 49.867188 -26.351562 49.953125 -29.5 C 50.035156 -32.65625 50.097656 -35.382812 50.140625 -37.6875 C 50.191406 -39.988281 50.21875 -41.476562 50.21875 -42.15625 C 50.125 -46.925781 49.375 -50.546875 47.96875 -53.015625 C 46.570312 -55.492188 44.828125 -57.195312 42.734375 -58.125 C 40.648438 -59.0625 38.585938 -59.53125 36.546875 -59.53125 L 36.28125 -59.53125 C 31.425781 -59.53125 27.488281 -57.890625 24.46875 -54.609375 C 21.445312 -51.335938 19.847656 -47.0625 19.671875 -41.78125 C 19.585938 -38.375 19.546875 -34.96875 19.546875 -31.5625 C 19.546875 -28.15625 19.546875 -24.75 19.546875 -21.34375 C 19.628906 -18.695312 19.863281 -15.773438 20.25 -12.578125 C 20.632812 -9.390625 20.570312 -6.472656 20.0625 -3.828125 C 19.71875 -1.867188 18.925781 -0.828125 17.6875 -0.703125 C 16.457031 -0.578125 15.078125 -0.472656 13.546875 -0.390625 C 12.523438 -0.296875 11.179688 -0.1875 9.515625 -0.0625 C 7.859375 0.0585938 6.238281 0 4.65625 -0.25 C 3.082031 -0.507812 1.914062 -1.148438 1.15625 -2.171875 C 0.21875 -3.535156 -0.121094 -5.175781 0.125 -7.09375 C 0.382812 -9.007812 0.554688 -10.691406 0.640625 -12.140625 C 0.984375 -16.828125 1.238281 -21.597656 1.40625 -26.453125 C 1.65625 -35.648438 1.398438 -44.804688 0.640625 -53.921875 C 0.472656 -55.703125 0.34375 -57.785156 0.25 -60.171875 C 0.164062 -62.554688 0.359375 -64.832031 0.828125 -67 C 1.296875 -69.175781 2.234375 -70.878906 3.640625 -72.109375 C 5.046875 -73.347656 7.15625 -73.710938 9.96875 -73.203125 C 12.269531 -72.785156 14.523438 -72.253906 16.734375 -71.609375 C 18.953125 -70.972656 21.210938 -70.441406 23.515625 -70.015625 C 23.679688 -70.015625 23.867188 -70.015625 24.078125 -70.015625 C 24.296875 -70.015625 24.445312 -70.015625 24.53125 -70.015625 C 26.144531 -70.015625 27.757812 -70.332031 29.375 -70.96875 C 31 -71.613281 32.660156 -72.273438 34.359375 -72.953125 C 36.066406 -73.628906 37.773438 -74.015625 39.484375 -74.109375 C 44.421875 -74.535156 49.101562 -73.679688 53.53125 -71.546875 C 57.363281 -69.753906 60.320312 -67.410156 62.40625 -64.515625 C 64.5 -61.617188 66.015625 -58.425781 66.953125 -54.9375 C 67.890625 -51.445312 68.484375 -47.828125 68.734375 -44.078125 C 68.992188 -40.328125 69.207031 -36.625 69.375 -32.96875 C 69.375 -32.195312 69.457031 -30.617188 69.625 -28.234375 C 69.800781 -25.847656 69.910156 -23.097656 69.953125 -19.984375 C 69.992188 -16.878906 69.925781 -13.859375 69.75 -10.921875 C 69.582031 -7.984375 69.179688 -5.535156 68.546875 -3.578125 C 67.910156 -1.617188 66.953125 -0.640625 65.671875 -0.640625 C 65.585938 -0.640625 65.523438 -0.640625 65.484375 -0.640625 C 65.441406 -0.640625 65.375 -0.640625 65.28125 -0.640625 Z M 65.28125 -0.640625 "/></g></g></g><g fill="#a20118" fill-opacity="1"><g transform="translate(254.373542, 102.304131)"><g><path d="M 5.234375 -17.625 C 2.515625 -22.570312 0.875 -27.597656 0.3125 -32.703125 C -0.238281 -37.816406 0.125 -42.738281 1.40625 -47.46875 C 2.6875 -52.195312 4.625 -56.429688 7.21875 -60.171875 C 9.8125 -63.921875 12.859375 -66.863281 16.359375 -69 C 21.128906 -71.894531 26.453125 -73.34375 32.328125 -73.34375 C 33.515625 -73.34375 35.023438 -73.082031 36.859375 -72.5625 C 38.691406 -72.050781 40.609375 -71.519531 42.609375 -70.96875 C 44.609375 -70.414062 46.523438 -70.097656 48.359375 -70.015625 C 50.191406 -69.929688 51.742188 -70.269531 53.015625 -71.03125 C 54.296875 -71.800781 55.109375 -73.25 55.453125 -75.375 C 55.878906 -78.445312 55.960938 -81.769531 55.703125 -85.34375 C 55.453125 -88.925781 55.238281 -92.289062 55.0625 -95.4375 C 54.976562 -97.570312 55.40625 -98.9375 56.34375 -99.53125 C 57.28125 -100.125 58.535156 -100.378906 60.109375 -100.296875 C 61.691406 -100.210938 63.289062 -100.128906 64.90625 -100.046875 C 66.4375 -100.046875 67.882812 -100.148438 69.25 -100.359375 C 70.613281 -100.566406 71.71875 -100.457031 72.5625 -100.03125 C 73.414062 -99.613281 73.84375 -98.335938 73.84375 -96.203125 C 73.84375 -88.367188 73.84375 -80.53125 73.84375 -72.6875 C 73.84375 -64.851562 73.84375 -57.019531 73.84375 -49.1875 C 73.757812 -41.945312 73.929688 -34.6875 74.359375 -27.40625 C 74.785156 -20.125 74.65625 -12.863281 73.96875 -5.625 C 73.800781 -3.75 73.207031 -2.535156 72.1875 -1.984375 C 71.164062 -1.429688 69.929688 -1.257812 68.484375 -1.46875 C 67.035156 -1.675781 65.539062 -2.035156 64 -2.546875 C 62.46875 -3.066406 61.066406 -3.410156 59.796875 -3.578125 C 56.640625 -4.003906 53.695312 -4.046875 50.96875 -3.703125 C 48.25 -3.359375 45.398438 -2.59375 42.421875 -1.40625 C 37.648438 0.382812 32.707031 0.679688 27.59375 -0.515625 C 22.90625 -1.535156 18.5625 -3.597656 14.5625 -6.703125 C 10.5625 -9.816406 7.453125 -13.457031 5.234375 -17.625 Z M 37.5625 -58.515625 C 34.320312 -58.515625 31.273438 -57.46875 28.421875 -55.375 C 25.566406 -53.289062 23.242188 -50.585938 21.453125 -47.265625 C 19.671875 -43.953125 18.78125 -40.421875 18.78125 -36.671875 C 18.78125 -33.085938 19.648438 -29.695312 21.390625 -26.5 C 23.140625 -23.3125 25.441406 -20.71875 28.296875 -18.71875 C 31.148438 -16.71875 34.195312 -15.675781 37.4375 -15.59375 L 37.953125 -15.59375 C 42.296875 -15.59375 46.039062 -17.164062 49.1875 -20.3125 C 53.1875 -24.488281 55.1875 -29.984375 55.1875 -36.796875 C 55.1875 -43.097656 53.566406 -48.269531 50.328125 -52.3125 C 47.097656 -56.363281 42.925781 -58.429688 37.8125 -58.515625 Z M 37.5625 -58.515625 "/></g></g></g><g fill="#a20118" fill-opacity="1"><g transform="translate(329.231567, 102.304131)"><g><path d="M 62.484375 -3.1875 C 61.796875 -2.34375 60.726562 -1.875 59.28125 -1.78125 C 57.914062 -1.78125 56.59375 -2.054688 55.3125 -2.609375 C 54.039062 -3.171875 52.785156 -3.726562 51.546875 -4.28125 C 50.316406 -4.832031 48.976562 -5.109375 47.53125 -5.109375 C 46.59375 -5.109375 45.65625 -5.046875 44.71875 -4.921875 C 43.78125 -4.796875 42.925781 -4.644531 42.15625 -4.46875 L 41.53125 -4.34375 C 39.050781 -3.914062 36.640625 -3.359375 34.296875 -2.671875 C 31.960938 -1.992188 29.769531 -1.316406 27.71875 -0.640625 C 26.78125 -0.378906 25.820312 -0.164062 24.84375 0 C 23.863281 0.164062 22.863281 0.25 21.84375 0.25 C 15.625 0.25 10.382812 -2.21875 6.125 -7.15625 C 1.269531 -12.6875 -0.636719 -19.5 0.390625 -27.59375 C 0.804688 -30.832031 1.929688 -33.726562 3.765625 -36.28125 C 5.597656 -38.84375 7.921875 -40.800781 10.734375 -42.15625 C 12.179688 -42.84375 13.710938 -43.332031 15.328125 -43.625 C 16.953125 -43.925781 18.613281 -44.207031 20.3125 -44.46875 C 20.738281 -44.46875 21.117188 -44.488281 21.453125 -44.53125 C 21.796875 -44.570312 22.140625 -44.632812 22.484375 -44.71875 L 39.21875 -47.015625 C 41.4375 -47.359375 42.820312 -48.019531 43.375 -49 C 43.925781 -49.976562 44.242188 -50.765625 44.328125 -51.359375 C 44.503906 -52.804688 44.054688 -54.125 42.984375 -55.3125 C 41.921875 -56.507812 40.664062 -57.320312 39.21875 -57.75 C 36.582031 -58.769531 33.859375 -59.28125 31.046875 -59.28125 L 30.65625 -59.28125 C 28.019531 -59.195312 25.507812 -58.8125 23.125 -58.125 C 20.738281 -57.445312 18.4375 -56.640625 16.21875 -55.703125 C 15.539062 -55.359375 14.734375 -55.1875 13.796875 -55.1875 C 11.921875 -55.1875 10.066406 -55.804688 8.234375 -57.046875 C 6.410156 -58.285156 5.113281 -59.753906 4.34375 -61.453125 C 4 -62.140625 3.847656 -62.71875 3.890625 -63.1875 C 3.929688 -63.65625 4 -64.015625 4.09375 -64.265625 C 4.601562 -65.367188 5.601562 -66.367188 7.09375 -67.265625 C 8.582031 -68.160156 10.15625 -68.925781 11.8125 -69.5625 C 13.476562 -70.207031 14.863281 -70.695312 15.96875 -71.03125 C 22.101562 -72.988281 28.28125 -73.96875 34.5 -73.96875 C 35.09375 -73.96875 35.6875 -73.96875 36.28125 -73.96875 C 36.882812 -73.96875 37.484375 -73.925781 38.078125 -73.84375 C 41.054688 -73.675781 44.351562 -73.101562 47.96875 -72.125 C 51.59375 -71.144531 54.679688 -69.289062 57.234375 -66.5625 C 60.210938 -63.320312 62.003906 -60.085938 62.609375 -56.859375 C 63.285156 -53.191406 63.515625 -49.378906 63.296875 -45.421875 C 63.085938 -41.460938 63.023438 -37.609375 63.109375 -33.859375 C 63.109375 -30.023438 63.109375 -26.171875 63.109375 -22.296875 C 63.109375 -18.421875 63.15625 -14.609375 63.25 -10.859375 C 63.25 -9.578125 63.3125 -8.210938 63.4375 -6.765625 C 63.5625 -5.316406 63.242188 -4.125 62.484375 -3.1875 Z M 43.953125 -25.171875 C 44.628906 -26.535156 44.835938 -27.6875 44.578125 -28.625 C 44.328125 -29.5625 44.078125 -30.195312 43.828125 -30.53125 C 43.484375 -31.039062 42.945312 -31.53125 42.21875 -32 C 41.5 -32.46875 40.5 -32.742188 39.21875 -32.828125 L 38.203125 -32.96875 C 37.429688 -33.050781 36.640625 -33.09375 35.828125 -33.09375 C 35.023438 -33.09375 34.15625 -33.09375 33.21875 -33.09375 C 31.769531 -33.09375 30.023438 -32.941406 27.984375 -32.640625 C 25.941406 -32.347656 23.984375 -31.5625 22.109375 -30.28125 C 20.828125 -29.257812 20.015625 -28.195312 19.671875 -27.09375 C 19.335938 -26.15625 19.296875 -24.960938 19.546875 -23.515625 C 20.140625 -20.867188 21.285156 -18.820312 22.984375 -17.375 C 24.691406 -15.925781 26.738281 -15.203125 29.125 -15.203125 C 32.113281 -15.203125 35.054688 -16.179688 37.953125 -18.140625 C 40.847656 -20.097656 42.847656 -22.441406 43.953125 -25.171875 Z M 43.953125 -25.171875 "/></g></g></g><g fill="#a20118" fill-opacity="1"><g transform="translate(392.975508, 102.304131)"><g><path d="M 63.375 -8.171875 C 58.34375 -3.910156 52.378906 -1.414062 45.484375 -0.6875 C 38.585938 0.0273438 31.734375 -1.269531 24.921875 -4.59375 C 24.578125 -4.851562 24.109375 -4.984375 23.515625 -4.984375 C 22.910156 -4.984375 22.3125 -4.8125 21.71875 -4.46875 C 20.695312 -3.875 20.1875 -2.9375 20.1875 -1.65625 C 20.1875 -0.382812 20.1875 0.890625 20.1875 2.171875 C 20.1875 3.453125 20.1875 4.726562 20.1875 6 C 20.1875 6.851562 20.269531 8.238281 20.4375 10.15625 C 20.613281 12.070312 20.765625 14.132812 20.890625 16.34375 C 21.015625 18.5625 20.988281 20.546875 20.8125 22.296875 C 20.644531 24.046875 20.179688 25.175781 19.421875 25.6875 C 19.078125 25.851562 18.691406 25.976562 18.265625 26.0625 C 17.835938 26.144531 17.414062 26.226562 17 26.3125 C 14.78125 26.570312 12.5 26.847656 10.15625 27.140625 C 7.8125 27.441406 5.742188 27.226562 3.953125 26.5 C 2.171875 25.78125 1.066406 24.015625 0.640625 21.203125 C 0.046875 16.179688 -0.0820312 11.175781 0.25 6.1875 C 0.59375 1.207031 0.765625 -3.75 0.765625 -8.6875 C 0.765625 -18.3125 0.785156 -28.082031 0.828125 -38 C 0.867188 -47.925781 0.804688 -57.789062 0.640625 -67.59375 C 0.640625 -69.375 0.742188 -70.648438 0.953125 -71.421875 C 1.171875 -72.191406 1.40625 -72.703125 1.65625 -72.953125 C 2.425781 -73.722656 3.679688 -73.957031 5.421875 -73.65625 C 7.171875 -73.351562 8.960938 -72.925781 10.796875 -72.375 C 12.628906 -71.820312 13.972656 -71.460938 14.828125 -71.296875 C 18.316406 -70.703125 21.59375 -70.660156 24.65625 -71.171875 C 27.726562 -71.679688 30.816406 -72.316406 33.921875 -73.078125 C 37.023438 -73.847656 40.285156 -74.234375 43.703125 -74.234375 C 48.554688 -74.234375 52.941406 -73.234375 56.859375 -71.234375 C 60.773438 -69.234375 64.09375 -66.503906 66.8125 -63.046875 C 69.539062 -59.597656 71.691406 -55.742188 73.265625 -51.484375 C 74.847656 -47.222656 75.722656 -42.816406 75.890625 -38.265625 C 76.054688 -33.710938 75.503906 -29.304688 74.234375 -25.046875 C 73.128906 -21.460938 71.660156 -18.265625 69.828125 -15.453125 C 67.992188 -12.648438 65.84375 -10.222656 63.375 -8.171875 Z M 37.8125 -15.453125 C 37.988281 -15.453125 38.117188 -15.453125 38.203125 -15.453125 C 38.285156 -15.453125 38.367188 -15.453125 38.453125 -15.453125 C 41.953125 -15.628906 45.0625 -16.695312 47.78125 -18.65625 C 50.507812 -20.613281 52.679688 -23.207031 54.296875 -26.4375 C 55.921875 -29.675781 56.6875 -33.257812 56.59375 -37.1875 C 56.59375 -41.269531 55.765625 -44.925781 54.109375 -48.15625 C 52.453125 -51.394531 50.238281 -53.972656 47.46875 -55.890625 C 44.695312 -57.804688 41.566406 -58.765625 38.078125 -58.765625 L 37.5625 -58.765625 C 34.15625 -58.679688 31.085938 -57.640625 28.359375 -55.640625 C 25.640625 -53.640625 23.507812 -50.957031 21.96875 -47.59375 C 20.4375 -44.226562 19.710938 -40.457031 19.796875 -36.28125 C 19.890625 -32.363281 20.722656 -28.828125 22.296875 -25.671875 C 23.867188 -22.523438 26.015625 -20.035156 28.734375 -18.203125 C 31.460938 -16.367188 34.488281 -15.453125 37.8125 -15.453125 Z M 37.8125 -15.453125 "/></g></g></g></g></g><g clip-path="url(#3af00c8533)"><g clip-path="url(#b3eaa12096)"><g transform="matrix(1, 0, 0, 1, 715, 331)"><g clip-path="url(#03dbbe185f)"><g clip-path="url(#ae72960fb7)"><g clip-path="url(#639f8213e8)"><path fill="#a20118" d="M 0.828125 0.589844 L 17.308594 0.589844 L 17.308594 17.070312 L 0.828125 17.070312 Z M 0.828125 0.589844 " fill-opacity="1" fill-rule="nonzero"/></g></g></g></g></g></g><g transform="matrix(1, 0, 0, 1, 270, 322)"><g clip-path="url(#799452b0a6)"><g fill="#a20118" fill-opacity="1"><g transform="translate(0.532323, 22.858119)"><g><path d="M 2.125 0 L 2.125 -14.625 L 11.015625 -14.625 L 11.015625 -12.90625 L 3.96875 -12.90625 L 3.96875 -8.296875 L 10.484375 -8.296875 L 10.484375 -6.59375 L 3.96875 -6.59375 L 3.96875 -1.71875 L 11.234375 -1.71875 L 11.234375 0 Z M 2.125 0 "/></g></g></g><g fill="#a20118" fill-opacity="1"><g transform="translate(13.121353, 22.858119)"><g><path d="M 6.1875 0 L 0.359375 -14.625 L 2.3125 -14.625 L 4.75 -8.453125 L 7.046875 -2.65625 L 9.3125 -8.453125 L 11.765625 -14.625 L 13.703125 -14.625 L 7.890625 0 Z M 6.1875 0 "/></g></g></g><g fill="#a20118" fill-opacity="1"><g transform="translate(27.171802, 22.858119)"><g><path d="M 2.125 0 L 2.125 -14.625 L 11.015625 -14.625 L 11.015625 -12.90625 L 3.96875 -12.90625 L 3.96875 -8.296875 L 10.484375 -8.296875 L 10.484375 -6.59375 L 3.96875 -6.59375 L 3.96875 -1.71875 L 11.234375 -1.71875 L 11.234375 0 Z M 2.125 0 "/></g></g></g><g fill="#a20118" fill-opacity="1"><g transform="translate(39.760833, 22.858119)"><g><path d="M 2.125 0 L 2.125 -14.625 L 3.859375 -14.625 L 11.953125 -3.171875 L 11.953125 -14.625 L 13.75 -14.625 L 13.75 0 L 12.03125 0 L 3.953125 -11.453125 L 3.953125 0 Z M 2.125 0 "/></g></g></g><g fill="#a20118" fill-opacity="1"><g transform="translate(55.627604, 22.858119)"><g><path d="M 5.65625 0 L 5.65625 -12.875 L 0.703125 -12.875 L 0.703125 -14.625 L 12.4375 -14.625 L 12.4375 -12.875 L 7.5 -12.875 L 7.5 0 Z M 5.65625 0 "/></g></g></g><g fill="#a20118" fill-opacity="1"><g transform="translate(68.780319, 22.858119)"><g><path d="M 7 0.265625 C 5.832031 0.265625 4.816406 0.0664062 3.953125 -0.328125 C 3.097656 -0.722656 2.4375 -1.28125 1.96875 -2 C 1.507812 -2.71875 1.269531 -3.546875 1.25 -4.484375 L 3.09375 -4.484375 C 3.125 -3.554688 3.492188 -2.820312 4.203125 -2.28125 C 4.921875 -1.75 5.851562 -1.484375 7 -1.484375 C 8.03125 -1.484375 8.847656 -1.679688 9.453125 -2.078125 C 10.054688 -2.484375 10.359375 -3.050781 10.359375 -3.78125 C 10.359375 -4.46875 10.066406 -5.015625 9.484375 -5.421875 C 8.898438 -5.828125 7.945312 -6.1875 6.625 -6.5 C 4.820312 -6.925781 3.503906 -7.476562 2.671875 -8.15625 C 1.835938 -8.832031 1.421875 -9.734375 1.421875 -10.859375 C 1.421875 -12.097656 1.890625 -13.078125 2.828125 -13.796875 C 3.765625 -14.523438 5.035156 -14.890625 6.640625 -14.890625 C 8.285156 -14.890625 9.582031 -14.476562 10.53125 -13.65625 C 11.488281 -12.84375 11.972656 -11.722656 11.984375 -10.296875 L 10.171875 -10.296875 C 10.160156 -11.171875 9.835938 -11.863281 9.203125 -12.375 C 8.566406 -12.882812 7.710938 -13.140625 6.640625 -13.140625 C 5.597656 -13.140625 4.78125 -12.929688 4.1875 -12.515625 C 3.59375 -12.109375 3.296875 -11.554688 3.296875 -10.859375 C 3.296875 -10.265625 3.570312 -9.757812 4.125 -9.34375 C 4.675781 -8.9375 5.660156 -8.554688 7.078125 -8.203125 C 8.941406 -7.742188 10.269531 -7.171875 11.0625 -6.484375 C 11.863281 -5.796875 12.265625 -4.914062 12.265625 -3.84375 C 12.265625 -2.570312 11.785156 -1.566406 10.828125 -0.828125 C 9.878906 -0.0976562 8.601562 0.265625 7 0.265625 Z M 7 0.265625 "/></g></g></g><g fill="#a20118" fill-opacity="1"><g transform="translate(82.287962, 22.858119)"><g/></g></g><g fill="#a20118" fill-opacity="1"><g transform="translate(87.465535, 22.858119)"><g><path d="M 6.09375 0.265625 C 4.539062 0.265625 3.320312 -0.078125 2.4375 -0.765625 C 1.5625 -1.460938 1.125 -2.429688 1.125 -3.671875 C 1.125 -4.566406 1.363281 -5.34375 1.84375 -6 C 2.320312 -6.664062 3.070312 -7.234375 4.09375 -7.703125 C 3.519531 -8.335938 3.070312 -8.957031 2.75 -9.5625 C 2.4375 -10.175781 2.28125 -10.804688 2.28125 -11.453125 C 2.28125 -12.128906 2.457031 -12.722656 2.8125 -13.234375 C 3.164062 -13.753906 3.660156 -14.160156 4.296875 -14.453125 C 4.941406 -14.742188 5.679688 -14.890625 6.515625 -14.890625 C 7.367188 -14.890625 8.117188 -14.734375 8.765625 -14.421875 C 9.410156 -14.117188 9.914062 -13.703125 10.28125 -13.171875 C 10.644531 -12.640625 10.828125 -12.007812 10.828125 -11.28125 C 10.828125 -9.4375 9.578125 -8.035156 7.078125 -7.078125 L 10.359375 -3.765625 C 10.859375 -4.671875 11.117188 -5.773438 11.140625 -7.078125 L 12.890625 -7.078125 C 12.847656 -5.171875 12.429688 -3.625 11.640625 -2.4375 L 14.03125 0 L 11.671875 0 L 10.53125 -1.171875 C 9.375 -0.210938 7.894531 0.265625 6.09375 0.265625 Z M 2.890625 -3.71875 C 2.890625 -2.988281 3.175781 -2.421875 3.75 -2.015625 C 4.320312 -1.617188 5.113281 -1.421875 6.125 -1.421875 C 7.382812 -1.421875 8.425781 -1.753906 9.25 -2.421875 L 5.3125 -6.453125 C 3.695312 -5.796875 2.890625 -4.882812 2.890625 -3.71875 Z M 3.984375 -11.46875 C 3.984375 -11.082031 4.125 -10.648438 4.40625 -10.171875 C 4.6875 -9.703125 5.160156 -9.109375 5.828125 -8.390625 C 6.984375 -8.816406 7.816406 -9.257812 8.328125 -9.71875 C 8.847656 -10.175781 9.109375 -10.695312 9.109375 -11.28125 C 9.109375 -11.894531 8.867188 -12.378906 8.390625 -12.734375 C 7.921875 -13.097656 7.289062 -13.28125 6.5 -13.28125 C 5.726562 -13.28125 5.113281 -13.113281 4.65625 -12.78125 C 4.207031 -12.457031 3.984375 -12.019531 3.984375 -11.46875 Z M 3.984375 -11.46875 "/></g></g></g><g fill="#a20118" fill-opacity="1"><g transform="translate(102.267572, 22.858119)"><g/></g></g><g fill="#a20118" fill-opacity="1"><g transform="translate(107.445145, 22.858119)"><g><path d="M 2.125 0 L 2.125 -14.625 L 7.078125 -14.625 C 8.179688 -14.625 9.140625 -14.421875 9.953125 -14.015625 C 10.765625 -13.609375 11.394531 -13.039062 11.84375 -12.3125 C 12.289062 -11.582031 12.515625 -10.71875 12.515625 -9.71875 C 12.515625 -8.707031 12.289062 -7.835938 11.84375 -7.109375 C 11.394531 -6.378906 10.765625 -5.8125 9.953125 -5.40625 C 9.140625 -5.007812 8.179688 -4.8125 7.078125 -4.8125 L 3.96875 -4.8125 L 3.96875 0 Z M 3.96875 -6.515625 L 7.046875 -6.515625 C 9.441406 -6.515625 10.640625 -7.570312 10.640625 -9.6875 C 10.640625 -11.8125 9.441406 -12.875 7.046875 -12.875 L 3.96875 -12.875 Z M 3.96875 -6.515625 "/></g></g></g><g fill="#a20118" fill-opacity="1"><g transform="translate(120.785763, 22.858119)"><g><path d="M 2.125 0 L 2.125 -14.625 L 7.703125 -14.625 C 8.722656 -14.625 9.609375 -14.429688 10.359375 -14.046875 C 11.109375 -13.660156 11.691406 -13.117188 12.109375 -12.421875 C 12.535156 -11.734375 12.75 -10.898438 12.75 -9.921875 C 12.75 -8.734375 12.441406 -7.753906 11.828125 -6.984375 C 11.210938 -6.210938 10.367188 -5.695312 9.296875 -5.4375 L 12.96875 0 L 10.765625 0 L 7.1875 -5.25 L 3.96875 -5.25 L 3.96875 0 Z M 3.96875 -7 L 7.5 -7 C 8.570312 -7 9.398438 -7.25 9.984375 -7.75 C 10.566406 -8.257812 10.859375 -8.984375 10.859375 -9.921875 C 10.859375 -10.859375 10.566406 -11.582031 9.984375 -12.09375 C 9.398438 -12.613281 8.570312 -12.875 7.5 -12.875 L 3.96875 -12.875 Z M 3.96875 -7 "/></g></g></g><g fill="#a20118" fill-opacity="1"><g transform="translate(135.003237, 22.858119)"><g><path d="M 8.78125 0.265625 C 7.300781 0.265625 5.988281 -0.0546875 4.84375 -0.703125 C 3.707031 -1.347656 2.816406 -2.238281 2.171875 -3.375 C 1.535156 -4.519531 1.21875 -5.832031 1.21875 -7.3125 C 1.21875 -8.800781 1.535156 -10.113281 2.171875 -11.25 C 2.816406 -12.382812 3.707031 -13.273438 4.84375 -13.921875 C 5.988281 -14.566406 7.300781 -14.890625 8.78125 -14.890625 C 10.269531 -14.890625 11.582031 -14.566406 12.71875 -13.921875 C 13.851562 -13.273438 14.742188 -12.382812 15.390625 -11.25 C 16.035156 -10.113281 16.359375 -8.800781 16.359375 -7.3125 C 16.359375 -5.832031 16.035156 -4.519531 15.390625 -3.375 C 14.742188 -2.238281 13.851562 -1.347656 12.71875 -0.703125 C 11.582031 -0.0546875 10.269531 0.265625 8.78125 0.265625 Z M 3.09375 -7.3125 C 3.09375 -6.1875 3.332031 -5.191406 3.8125 -4.328125 C 4.289062 -3.460938 4.957031 -2.785156 5.8125 -2.296875 C 6.675781 -1.804688 7.664062 -1.5625 8.78125 -1.5625 C 9.90625 -1.5625 10.890625 -1.804688 11.734375 -2.296875 C 12.585938 -2.785156 13.253906 -3.460938 13.734375 -4.328125 C 14.210938 -5.191406 14.453125 -6.1875 14.453125 -7.3125 C 14.453125 -8.457031 14.210938 -9.457031 13.734375 -10.3125 C 13.253906 -11.164062 12.585938 -11.835938 11.734375 -12.328125 C 10.890625 -12.816406 9.90625 -13.0625 8.78125 -13.0625 C 7.664062 -13.0625 6.675781 -12.816406 5.8125 -12.328125 C 4.957031 -11.835938 4.289062 -11.164062 3.8125 -10.3125 C 3.332031 -9.457031 3.09375 -8.457031 3.09375 -7.3125 Z M 3.09375 -7.3125 "/></g></g></g><g fill="#a20118" fill-opacity="1"><g transform="translate(152.540207, 22.858119)"><g><path d="M 2.125 0 L 2.125 -14.625 L 7.1875 -14.625 C 8.6875 -14.625 10 -14.3125 11.125 -13.6875 C 12.25 -13.070312 13.125 -12.21875 13.75 -11.125 C 14.375 -10.03125 14.6875 -8.757812 14.6875 -7.3125 C 14.6875 -5.875 14.375 -4.601562 13.75 -3.5 C 13.125 -2.40625 12.25 -1.546875 11.125 -0.921875 C 10 -0.304688 8.6875 0 7.1875 0 Z M 3.96875 -1.75 L 7.1875 -1.75 C 8.300781 -1.75 9.28125 -1.984375 10.125 -2.453125 C 10.96875 -2.921875 11.625 -3.570312 12.09375 -4.40625 C 12.570312 -5.238281 12.8125 -6.207031 12.8125 -7.3125 C 12.8125 -8.425781 12.566406 -9.394531 12.078125 -10.21875 C 11.597656 -11.050781 10.929688 -11.703125 10.078125 -12.171875 C 9.234375 -12.640625 8.242188 -12.875 7.109375 -12.875 L 3.96875 -12.875 Z M 3.96875 -1.75 "/></g></g></g><g fill="#a20118" fill-opacity="1"><g transform="translate(168.427855, 22.858119)"><g><path d="M 7.609375 0.25 C 5.835938 0.25 4.453125 -0.296875 3.453125 -1.390625 C 2.460938 -2.492188 1.96875 -4.015625 1.96875 -5.953125 L 1.96875 -14.625 L 3.78125 -14.625 L 3.78125 -6.078125 C 3.78125 -4.585938 4.109375 -3.457031 4.765625 -2.6875 C 5.421875 -1.925781 6.367188 -1.546875 7.609375 -1.546875 C 10.148438 -1.546875 11.421875 -3.054688 11.421875 -6.078125 L 11.421875 -14.625 L 13.265625 -14.625 L 13.265625 -5.953125 C 13.265625 -4.015625 12.757812 -2.492188 11.75 -1.390625 C 10.75 -0.296875 9.367188 0.25 7.609375 0.25 Z M 7.609375 0.25 "/></g></g></g><g fill="#a20118" fill-opacity="1"><g transform="translate(183.647429, 22.858119)"><g><path d="M 8.609375 0.265625 C 7.535156 0.265625 6.546875 0.0742188 5.640625 -0.296875 C 4.734375 -0.671875 3.945312 -1.195312 3.28125 -1.875 C 2.625 -2.550781 2.113281 -3.347656 1.75 -4.265625 C 1.394531 -5.191406 1.21875 -6.207031 1.21875 -7.3125 C 1.21875 -8.414062 1.394531 -9.425781 1.75 -10.34375 C 2.113281 -11.269531 2.625 -12.070312 3.28125 -12.75 C 3.945312 -13.425781 4.734375 -13.953125 5.640625 -14.328125 C 6.546875 -14.703125 7.535156 -14.890625 8.609375 -14.890625 C 9.765625 -14.890625 10.828125 -14.675781 11.796875 -14.25 C 12.765625 -13.832031 13.59375 -13.226562 14.28125 -12.4375 C 14.96875 -11.65625 15.472656 -10.726562 15.796875 -9.65625 L 13.828125 -9.65625 C 13.453125 -10.707031 12.800781 -11.535156 11.875 -12.140625 C 10.945312 -12.753906 9.878906 -13.0625 8.671875 -13.0625 C 7.585938 -13.0625 6.625 -12.816406 5.78125 -12.328125 C 4.945312 -11.835938 4.289062 -11.160156 3.8125 -10.296875 C 3.332031 -9.429688 3.09375 -8.4375 3.09375 -7.3125 C 3.09375 -6.1875 3.332031 -5.191406 3.8125 -4.328125 C 4.289062 -3.460938 4.945312 -2.785156 5.78125 -2.296875 C 6.625 -1.804688 7.585938 -1.5625 8.671875 -1.5625 C 9.910156 -1.5625 11.007812 -1.878906 11.96875 -2.515625 C 12.925781 -3.160156 13.59375 -4.035156 13.96875 -5.140625 L 15.921875 -5.140625 C 15.628906 -4.054688 15.128906 -3.109375 14.421875 -2.296875 C 13.722656 -1.492188 12.875 -0.863281 11.875 -0.40625 C 10.875 0.0390625 9.785156 0.265625 8.609375 0.265625 Z M 8.609375 0.265625 "/></g></g></g><g fill="#a20118" fill-opacity="1"><g transform="translate(200.683349, 22.858119)"><g><path d="M 5.65625 0 L 5.65625 -12.875 L 0.703125 -12.875 L 0.703125 -14.625 L 12.4375 -14.625 L 12.4375 -12.875 L 7.5 -12.875 L 7.5 0 Z M 5.65625 0 "/></g></g></g><g fill="#a20118" fill-opacity="1"><g transform="translate(213.836064, 22.858119)"><g><path d="M 2.125 0 L 2.125 -14.625 L 3.96875 -14.625 L 3.96875 0 Z M 2.125 0 "/></g></g></g><g fill="#a20118" fill-opacity="1"><g transform="translate(219.93225, 22.858119)"><g><path d="M 8.78125 0.265625 C 7.300781 0.265625 5.988281 -0.0546875 4.84375 -0.703125 C 3.707031 -1.347656 2.816406 -2.238281 2.171875 -3.375 C 1.535156 -4.519531 1.21875 -5.832031 1.21875 -7.3125 C 1.21875 -8.800781 1.535156 -10.113281 2.171875 -11.25 C 2.816406 -12.382812 3.707031 -13.273438 4.84375 -13.921875 C 5.988281 -14.566406 7.300781 -14.890625 8.78125 -14.890625 C 10.269531 -14.890625 11.582031 -14.566406 12.71875 -13.921875 C 13.851562 -13.273438 14.742188 -12.382812 15.390625 -11.25 C 16.035156 -10.113281 16.359375 -8.800781 16.359375 -7.3125 C 16.359375 -5.832031 16.035156 -4.519531 15.390625 -3.375 C 14.742188 -2.238281 13.851562 -1.347656 12.71875 -0.703125 C 11.582031 -0.0546875 10.269531 0.265625 8.78125 0.265625 Z M 3.09375 -7.3125 C 3.09375 -6.1875 3.332031 -5.191406 3.8125 -4.328125 C 4.289062 -3.460938 4.957031 -2.785156 5.8125 -2.296875 C 6.675781 -1.804688 7.664062 -1.5625 8.78125 -1.5625 C 9.90625 -1.5625 10.890625 -1.804688 11.734375 -2.296875 C 12.585938 -2.785156 13.253906 -3.460938 13.734375 -4.328125 C 14.210938 -5.191406 14.453125 -6.1875 14.453125 -7.3125 C 14.453125 -8.457031 14.210938 -9.457031 13.734375 -10.3125 C 13.253906 -11.164062 12.585938 -11.835938 11.734375 -12.328125 C 10.890625 -12.816406 9.90625 -13.0625 8.78125 -13.0625 C 7.664062 -13.0625 6.675781 -12.816406 5.8125 -12.328125 C 4.957031 -11.835938 4.289062 -11.164062 3.8125 -10.3125 C 3.332031 -9.457031 3.09375 -8.457031 3.09375 -7.3125 Z M 3.09375 -7.3125 "/></g></g></g><g fill="#a20118" fill-opacity="1"><g transform="translate(237.46922, 22.858119)"><g><path d="M 2.125 0 L 2.125 -14.625 L 3.859375 -14.625 L 11.953125 -3.171875 L 11.953125 -14.625 L 13.75 -14.625 L 13.75 0 L 12.03125 0 L 3.953125 -11.453125 L 3.953125 0 Z M 2.125 0 "/></g></g></g></g></g></svg>